<mxfile host="app.diagrams.net" modified="2023-02-04T13:38:00.360Z" agent="5.0 (Macintosh; Intel Mac OS X 10_15_7) AppleWebKit/537.36 (KHTML, like Gecko) Chrome/109.0.0.0 Safari/537.36" etag="IwIvs-EbJHHvHMpvtwrk" version="18.2.1" type="github">
  <diagram id="ki0pkrsjcnJrHrvvzJte" name="Page-1">
    <mxGraphModel dx="1061" dy="825" grid="1" gridSize="10" guides="1" tooltips="1" connect="1" arrows="1" fold="1" page="1" pageScale="1" pageWidth="827" pageHeight="1169" math="0" shadow="0">
      <root>
        <mxCell id="0" />
        <mxCell id="1" parent="0" />
        <mxCell id="tNNaox8iJUeFNCkQUiMx-3" value="" style="edgeStyle=orthogonalEdgeStyle;rounded=0;orthogonalLoop=1;jettySize=auto;html=1;" edge="1" parent="1" source="tNNaox8iJUeFNCkQUiMx-1" target="tNNaox8iJUeFNCkQUiMx-2">
          <mxGeometry relative="1" as="geometry" />
        </mxCell>
        <mxCell id="tNNaox8iJUeFNCkQUiMx-5" style="edgeStyle=orthogonalEdgeStyle;rounded=0;orthogonalLoop=1;jettySize=auto;html=1;entryX=0;entryY=0.5;entryDx=0;entryDy=0;" edge="1" parent="1" source="tNNaox8iJUeFNCkQUiMx-1" target="tNNaox8iJUeFNCkQUiMx-4">
          <mxGeometry relative="1" as="geometry" />
        </mxCell>
        <mxCell id="tNNaox8iJUeFNCkQUiMx-1" value="\Sylius\Bundle\ApiBundle\Context\TokenValueBasedCartContext&lt;br&gt;priority:&amp;nbsp;-333" style="rounded=0;whiteSpace=wrap;html=1;" vertex="1" parent="1">
          <mxGeometry x="70" y="120" width="390" height="60" as="geometry" />
        </mxCell>
        <mxCell id="tNNaox8iJUeFNCkQUiMx-2" value="Works only for new API route prefix" style="ellipse;whiteSpace=wrap;html=1;rounded=0;" vertex="1" parent="1">
          <mxGeometry x="640" y="60" width="120" height="60" as="geometry" />
        </mxCell>
        <mxCell id="tNNaox8iJUeFNCkQUiMx-4" value="Finds cart by token Value" style="ellipse;whiteSpace=wrap;html=1;rounded=0;" vertex="1" parent="1">
          <mxGeometry x="640" y="150" width="120" height="60" as="geometry" />
        </mxCell>
        <mxCell id="tNNaox8iJUeFNCkQUiMx-9" value="" style="edgeStyle=orthogonalEdgeStyle;rounded=0;orthogonalLoop=1;jettySize=auto;html=1;" edge="1" parent="1" source="tNNaox8iJUeFNCkQUiMx-6" target="tNNaox8iJUeFNCkQUiMx-8">
          <mxGeometry relative="1" as="geometry" />
        </mxCell>
        <mxCell id="tNNaox8iJUeFNCkQUiMx-6" value="\Sylius\Bundle\CoreBundle\Context\CustomerAndChannelBasedCartContext&lt;br&gt;priority:&amp;nbsp;-555" style="rounded=0;whiteSpace=wrap;html=1;" vertex="1" parent="1">
          <mxGeometry x="40" y="230" width="450" height="60" as="geometry" />
        </mxCell>
        <mxCell id="tNNaox8iJUeFNCkQUiMx-11" value="" style="edgeStyle=orthogonalEdgeStyle;rounded=0;orthogonalLoop=1;jettySize=auto;html=1;" edge="1" parent="1" source="tNNaox8iJUeFNCkQUiMx-7" target="tNNaox8iJUeFNCkQUiMx-10">
          <mxGeometry relative="1" as="geometry" />
        </mxCell>
        <mxCell id="tNNaox8iJUeFNCkQUiMx-7" value="\Sylius\Bundle\CoreBundle\Context\SessionAndChannelBasedCartContext&lt;br&gt;priority:&amp;nbsp;-777" style="rounded=0;whiteSpace=wrap;html=1;" vertex="1" parent="1">
          <mxGeometry x="50" y="340" width="450" height="60" as="geometry" />
        </mxCell>
        <mxCell id="tNNaox8iJUeFNCkQUiMx-8" value="finds Latest Not Empty Cart By Channel And Customer" style="ellipse;whiteSpace=wrap;html=1;rounded=0;" vertex="1" parent="1">
          <mxGeometry x="735" y="230" width="315" height="60" as="geometry" />
        </mxCell>
        <mxCell id="tNNaox8iJUeFNCkQUiMx-10" value="gets cart by channel from session or clears it if not found" style="ellipse;whiteSpace=wrap;html=1;rounded=0;" vertex="1" parent="1">
          <mxGeometry x="745" y="340" width="325" height="60" as="geometry" />
        </mxCell>
        <mxCell id="tNNaox8iJUeFNCkQUiMx-15" value="" style="edgeStyle=orthogonalEdgeStyle;rounded=0;orthogonalLoop=1;jettySize=auto;html=1;" edge="1" parent="1" source="tNNaox8iJUeFNCkQUiMx-13" target="tNNaox8iJUeFNCkQUiMx-14">
          <mxGeometry relative="1" as="geometry" />
        </mxCell>
        <mxCell id="tNNaox8iJUeFNCkQUiMx-17" style="edgeStyle=orthogonalEdgeStyle;rounded=0;orthogonalLoop=1;jettySize=auto;html=1;entryX=0;entryY=0.5;entryDx=0;entryDy=0;" edge="1" parent="1" source="tNNaox8iJUeFNCkQUiMx-13" target="tNNaox8iJUeFNCkQUiMx-16">
          <mxGeometry relative="1" as="geometry" />
        </mxCell>
        <mxCell id="tNNaox8iJUeFNCkQUiMx-13" value="\Sylius\Component\Core\Cart\Context\ShopBasedCartContext&lt;br&gt;priority:&amp;nbsp;-999" style="rounded=0;whiteSpace=wrap;html=1;" vertex="1" parent="1">
          <mxGeometry x="50" y="470" width="470" height="60" as="geometry" />
        </mxCell>
        <mxCell id="tNNaox8iJUeFNCkQUiMx-14" value="Decorates&amp;nbsp;\Sylius\Component\Order\Context\CartContext" style="ellipse;whiteSpace=wrap;html=1;rounded=0;" vertex="1" parent="1">
          <mxGeometry x="655" y="470" width="475" height="60" as="geometry" />
        </mxCell>
        <mxCell id="tNNaox8iJUeFNCkQUiMx-16" value="Uses shopper context xD&lt;br&gt;" style="ellipse;whiteSpace=wrap;html=1;rounded=0;" vertex="1" parent="1">
          <mxGeometry x="655" y="560" width="475" height="60" as="geometry" />
        </mxCell>
      </root>
    </mxGraphModel>
  </diagram>
</mxfile>
